<?xml version="1.0" standalone="no"?>
<!DOCTYPE svg PUBLIC "-//W3C//DTD SVG 20010904//EN"
 "http://www.w3.org/TR/2001/REC-SVG-20010904/DTD/svg10.dtd">
<svg version="1.0" xmlns="http://www.w3.org/2000/svg"
 width="700.000000pt" height="700.000000pt" viewBox="0 0 700.000000 700.000000"
 preserveAspectRatio="xMidYMid meet">
<metadata>
Created by potrace 1.14, written by Peter Selinger 2001-2017
</metadata>
<g transform="translate(0.000000,700.000000) scale(0.100000,-0.100000)"
fill="#000000" stroke="none">
<path d="M931 6985 c-240 -53 -425 -174 -559 -369 -63 -90 -103 -183 -139
-321 -4 -16 -9 -1261 -11 -2765 -2 -2509 -1 -2742 14 -2820 63 -324 293 -574
621 -677 l88 -28 2535 -2 2535 -2 95 24 c352 91 606 367 660 717 11 69 16
5461 5 5489 -3 8 -7 28 -9 44 -8 63 -30 133 -67 213 -110 239 -304 404 -569
484 l-75 23 -2530 2 c-2125 1 -2540 -1 -2594 -12z m1149 -874 c157 -45 277
-170 313 -328 20 -84 18 -3206 -2 -3273 -43 -152 -173 -276 -325 -310 -66 -15
-583 -14 -639 1 -147 38 -267 151 -315 297 -14 42 -15 225 -17 1637 -1 1287 1
1601 12 1648 38 167 170 297 334 331 81 16 578 14 639 -3z m1750 0 c159 -45
289 -185 318 -341 4 -25 8 -364 7 -755 -1 -631 -3 -716 -18 -765 -44 -147
-171 -266 -322 -300 -31 -8 -153 -12 -325 -12 -256 0 -279 1 -340 22 -104 35
-174 88 -234 179 -72 107 -70 84 -71 876 -2 765 -1 774 51 877 57 112 190 208
314 225 90 13 568 8 620 -6z m1750 0 c113 -32 230 -126 277 -222 52 -105 49
12 48 -2397 -1 -1818 -3 -2256 -14 -2292 -45 -155 -160 -268 -316 -311 -54
-14 -538 -19 -625 -6 -112 17 -251 120 -304 225 -56 110 -53 -13 -51 2417 l1
2250 22 56 c59 150 171 249 318 282 75 17 581 15 644 -2z"/>
</g>
</svg>
